<svg width="18" height="18" viewBox="0 0 18 18" fill="none" xmlns="http://www.w3.org/2000/svg">
<path d="M0 3.25C0 1.45507 1.45507 0 3.25 0H14.75C16.5449 0 18 1.45507 18 3.25V14.75C18 16.5449 16.5449 18 14.75 18H3.25C1.45507 18 0 16.5449 0 14.75V3.25ZM3.25 1.5C2.2835 1.5 1.5 2.2835 1.5 3.25V14.75C1.5 15.7165 2.2835 16.5 3.25 16.5H10.5V1.5H3.25ZM14.75 16.5C15.7165 16.5 16.5 15.7165 16.5 14.75V13H12V16.5H14.75ZM16.5 11.5V6.5H12V11.5H16.5ZM16.5 5V3.25C16.5 2.2835 15.7165 1.5 14.75 1.5H12V5H16.5ZM3 10.75C3 10.3358 3.33579 10 3.75 10H8.25C8.6642 10 9 10.3358 9 10.75C9 11.1642 8.6642 11.5 8.25 11.5H3.75C3.33579 11.5 3 11.1642 3 10.75ZM4.25 3.5C3.55964 3.5 3 4.05964 3 4.75V7.25C3 7.9404 3.55964 8.5 4.25 8.5H7.75C8.4404 8.5 9 7.9404 9 7.25V4.75C9 4.05964 8.4404 3.5 7.75 3.5H4.25ZM4.5 7V5H7.5V7H4.5ZM3 13.75C3 13.3358 3.33579 13 3.75 13H8.25C8.6642 13 9 13.3358 9 13.75C9 14.1642 8.6642 14.5 8.25 14.5H3.75C3.33579 14.5 3 14.1642 3 13.75Z" fill="#8767E1"/>
</svg>
